<?xml version="1.0" encoding="utf-8"?>
<!-- Generator: Adobe Illustrator 27.9.0, SVG Export Plug-In . SVG Version: 6.00 Build 0)  -->
<svg version="1.1" id="圖層_1" xmlns="http://www.w3.org/2000/svg" xmlns:xlink="http://www.w3.org/1999/xlink" x="0px" y="0px"
	 viewBox="0 0 119.6 21" style="enable-background:new 0 0 119.6 21;" xml:space="preserve">
<style type="text/css">
	.st0{enable-background:new    ;}
	.st1{fill:#231815;}
</style>
<g class="st0">
	<path class="st1" d="M10.6,11.2c0,0.1,0,0.2,0,0.3l-0.1,0.7c-0.1,0.6-0.2,1.5-0.4,2.7c0,0.2-0.1,0.5-0.1,0.9c0.1,0-0.2,0-0.9,0
		s-1.5,0-2.4,0H5.1c-2,0-3.4,0-4.3,0.1c-0.1,0-0.2,0-0.3,0c-0.2,0-0.3-0.1-0.3-0.2v-0.1c0,0,0.2-0.4,0.5-1c0.9-1.8,2.7-5.3,5.4-10.1
		c0.5-1.2,0.8-2,1.2-2.7c-0.3-0.1-1-0.2-2.1-0.2c-1.7,0-2.8,0.4-3.2,1C2.1,2.9,2,3.3,1.8,3.8S1.5,4.9,1.4,5.2c0,0.3-0.1,0.5-0.3,0.5
		S1,5.6,1,5.5c0-0.1,0-0.2,0-0.3l0.2-1c0-0.4,0.1-0.6,0.2-1.1l0.2-0.8C1.6,2,1.7,1.6,1.8,1.1C2.6,1.2,4,1.2,5.7,1.2
		c0.6,0,1.3,0,1.9,0c0.7,0,1.3,0,1.8,0h0.4c0.1,0,0.3,0,0.4-0.1C9.8,1.3,9.7,1.9,9.2,2.9c-0.1,0.2-2,3.8-5.7,10.9
		c-0.2,0.4-0.5,0.8-0.7,1.4c0.6,0.1,1.4,0.1,2.4,0.1c0.9,0,1.5,0,1.9-0.1c0.7-0.1,1.4-0.4,1.7-0.8c0.6-0.6,1-1.6,1.2-3.1
		c0-0.3,0.1-0.4,0.3-0.4C10.5,11,10.6,11,10.6,11.2z"/>
	<path class="st1" d="M25.4,15.5c0,0.1-0.1,0.2-0.4,0.2h-2.8c-0.2,0-0.5,0-0.8,0c-0.4,0-0.6,0-0.8,0c-0.3,0-0.5-0.1-0.5-0.2
		s0.4-0.2,1-0.3c0.4,0,0.5-0.1,0.6-0.2c0.1-0.1,0.1-0.5,0.1-1v-6h-6.3v5.9c0,0.6,0.1,1,0.2,1.1c0.1,0.1,0.5,0.2,1,0.3
		c0.4,0,0.5,0.1,0.5,0.2c0,0.1-0.2,0.2-0.5,0.2h-0.2c-0.4,0-0.7,0-1.1,0c-0.4,0-0.5,0-0.6,0c-0.2,0-0.5,0-0.9,0c-0.4,0-1,0-1.7,0
		c-0.3,0-0.5-0.1-0.5-0.2s0.2-0.2,0.5-0.2c0.2,0,0.4,0,0.5,0c0.3,0,0.5-0.1,0.5-0.2c0-0.1,0.1-0.5,0.1-1.2V2.9c0-0.6,0-1-0.1-1.1
		c-0.1-0.1-0.3-0.2-0.6-0.2c-0.5,0-0.7-0.1-0.7-0.1C12,1.5,12,1.4,12,1.3c0-0.1,0.1-0.2,0.3-0.2c0.1,0,0.2,0,0.4,0
		c0.4,0,1.2,0,2.4,0c0.7,0,1.2,0,1.4,0c0.1,0,0.2,0,0.4,0c0.3,0,0.4,0.1,0.4,0.2c0,0.1-0.2,0.2-0.6,0.2c-0.5,0-0.7,0.1-0.8,0.2
		c-0.1,0.1-0.1,0.5-0.1,1v4.8H22V3c0-0.7-0.1-1.2-0.2-1.3c-0.1-0.1-0.5-0.2-1.2-0.2c-0.2,0-0.3-0.1-0.3-0.2c0-0.1,0.1-0.2,0.4-0.2
		h0.1c0.2,0,0.5,0,1,0c0.5,0,0.9,0,1.1,0c0.8,0,1.4,0,1.7,0s0.5,0,0.5,0c0.3,0,0.5,0.1,0.5,0.2c0,0.1-0.3,0.2-0.9,0.2
		c-0.2,0-0.3,0-0.4,0c-0.2,0-0.2,0.1-0.3,0.3c-0.3,0.2-0.3,0.5-0.3,1v11.1c0,0.6,0,1.1,0.1,1.2c0.2,0.2,0.5,0.3,1.2,0.3
		C25.3,15.3,25.4,15.4,25.4,15.5z"/>
	<path class="st1" d="M40.1,8.5c0,2.1-0.6,3.8-1.9,5.3c-1.3,1.4-2.8,2.2-4.5,2.2c-1.9,0-3.5-0.7-4.8-2.2c-1.3-1.4-2-3.3-2-5.3
		c0-2.2,0.6-4,1.9-5.3C30.1,1.7,31.7,1,33.6,1c1.8,0,3.4,0.7,4.6,2.2C39.5,4.6,40.1,6.4,40.1,8.5z M37.8,8.6c0-2.5-0.5-4.5-1.5-6
		c-0.6-0.9-1.5-1.4-2.7-1.4c-1.1,0-2,0.4-2.6,1c-1.1,1.4-1.6,3.4-1.6,6.3c0,2.3,0.4,4,1.2,5.3c0.8,1.3,1.9,1.9,3.3,1.9
		c1.4,0,2.4-0.5,3-1.7C37.4,12.5,37.8,10.8,37.8,8.6z"/>
	<path class="st1" d="M54.7,1.4c0,0.1-0.1,0.2-0.4,0.2c0,0-0.2,0-0.5,0c-0.1,0-0.2,0-0.3,0c-0.4,0-0.5,0.1-0.6,0.3
		c0,0.1,0,0.3,0,0.5v7.8c0,2-0.4,3.5-1.2,4.4c-0.8,0.9-2,1.4-3.6,1.4c-2,0-3.4-0.5-4.3-1.7c-0.5-0.7-0.8-2-0.8-3.8V2.1
		c0-0.3-0.2-0.4-0.5-0.5c-0.1,0-0.4,0-0.8,0c-0.3,0-0.4-0.1-0.4-0.2c0-0.1,0.1-0.2,0.3-0.2H42c0.1,0,0.3,0,0.5,0c0.2,0,0.5,0,0.6,0
		h3c0.1,0,0.2,0,0.3,0c0.3,0,0.4,0.1,0.4,0.3c0,0.1,0,0.2-0.1,0.2s-0.4,0-0.8,0c-0.2,0-0.4,0-0.4,0c-0.2,0.1-0.2,0.2-0.3,0.3
		c0,0.1,0,0.5,0,1.2v7.4c0,1.8,0.3,3.1,0.9,3.7c0.5,0.6,1.4,1,2.6,1c2.1,0,3.3-1.2,3.6-3.6c0-0.4,0.1-1.9,0.1-4.5V6.1V4.3V2.9
		c0-0.2,0-0.3,0-0.5s0-0.3,0-0.3c0-0.3-0.2-0.5-0.5-0.5c-0.1,0-0.4,0-0.8,0c-0.3,0-0.5-0.1-0.5-0.3c0-0.1,0.1-0.2,0.3-0.2
		c0.1,0,0.2,0,0.3,0c0.2,0,0.8,0,1.8,0c0.2,0,0.4,0,0.5,0s0.3,0,0.4,0h0.3C54.5,1.3,54.7,1.3,54.7,1.4z"/>
	<path class="st1" d="M60.9,11.6h-5.7v-1.1h5.7V11.6z"/>
	<path class="st1" d="M75.4,8.6c0,1.9-0.5,3.5-1.5,4.9s-2.4,2.2-4.1,2.4v0.6c0,1.1,0.2,1.8,0.6,2.3s1.2,0.6,2.3,0.6
		c0.1,0,0.3,0,0.5,0c0.3,0,0.5,0,0.5,0c0.2,0,0.4,0.1,0.4,0.3c0,0.1-0.2,0.2-0.6,0.3c-0.7,0-1.5,0-2.4,0c-1.4,0-2.4-0.4-3-1.2
		c-0.4-0.5-0.5-1.2-0.5-2.4V16v-0.3c-1.4-0.4-2.4-0.8-3.2-1.5c-1.6-1.4-2.4-3.4-2.4-5.8c0-1.4,0.3-2.5,0.8-3.7
		c0.5-1.2,1.3-2.1,2.3-2.7c1.1-0.6,2.2-1,3.5-1c1.6,0,3,0.5,4,1.4c0.8,0.7,1.5,1.6,2,2.7S75.4,7.3,75.4,8.6z M73.1,8.7
		c0-2.5-0.5-4.5-1.4-5.9c-0.7-1-1.6-1.4-2.8-1.4c-1.4,0-2.4,0.6-3.3,1.8c-0.7,1.3-1.1,3-1.1,5.3c0,2.3,0.4,4.1,1.2,5.3
		c0.8,1.2,1.9,1.8,3.4,1.8c1.5,0,2.7-0.8,3.4-2.4C72.8,12,73.1,10.5,73.1,8.7z"/>
	<path class="st1" d="M82.2,15.5c0,0.1-0.1,0.2-0.3,0.2h-0.2c-0.1,0-1-0.1-2.8-0.1c-0.4,0-0.7,0-1.1,0c-0.2,0-0.5,0-0.8,0
		c-0.2,0-0.3-0.1-0.3-0.2s0.2-0.2,0.5-0.2c0.5,0,0.9-0.1,1-0.2c0.1-0.1,0.2-0.5,0.2-1.2v-11c0-0.7,0-1.1-0.1-1.2
		c-0.1-0.2-0.5-0.2-1.2-0.3c-0.3,0-0.4-0.1-0.4-0.2c0-0.1,0.1-0.2,0.3-0.2H80c0.2,0,0.6,0,1.2,0H82c0.2,0,0.4,0.1,0.4,0.2
		c0,0.1-0.3,0.2-0.9,0.2c-0.4,0-0.5,0.1-0.6,0.2c-0.1,0.1-0.1,0.4-0.1,0.9v11.1c0,0.8,0,1.2,0.1,1.3c0.2,0.2,0.6,0.3,1.4,0.3
		C82.2,15.3,82.2,15.4,82.2,15.5z"/>
	<path class="st1" d="M106.3,1.3c0,0.1-0.3,0.2-0.7,0.2c-0.5,0-0.9,0.2-1.1,0.5s-0.5,1.1-0.8,2.1c-0.6,1.9-1.2,3.5-1.6,4.9
		c-0.8,2.3-1.6,4.4-2.3,6.6c-0.1,0.2-0.1,0.3-0.2,0.3c-0.1,0-0.2-0.1-0.2-0.2c-0.1-0.2-0.3-0.6-0.5-1.4c-0.4-1.1-0.8-2.2-1.3-3.3
		c-0.4-0.9-0.7-1.7-1.1-2.6c-1,2.4-1.9,4.8-2.9,7.3c-0.1,0.2-0.1,0.3-0.2,0.3c-0.1,0-0.2-0.1-0.3-0.4c-0.5-1-2-5.3-4.8-12.8
		c-0.2-0.5-0.4-0.8-0.5-1c-0.1-0.2-0.4-0.3-0.7-0.3c-0.6,0-1-0.1-1-0.3c0-0.1,0.1-0.2,0.4-0.2c0.1,0,0.2,0,0.3,0
		c0.7,0,1.5,0.1,2.4,0.1c0.2,0,0.5,0,0.9,0s0.9,0,1.6,0H92c0.3,0,0.4,0.1,0.4,0.2c0,0.2-0.2,0.3-0.6,0.3c-0.8,0-1.3,0.2-1.3,0.4
		c0,0.4,1.3,4,3.8,10.9c0.9-2.4,1.6-4.1,2.1-5.2l-2.1-5.3C94.2,2.2,94,2,93.9,1.9c-0.2-0.1-0.5-0.1-0.8-0.2c-0.4,0-0.5-0.1-0.5-0.2
		c0-0.2,0.2-0.3,0.5-0.3c0.2,0,0.5,0,0.8,0s0.9,0,1.6,0H97h2.3c0.5,0,1.1,0,1.8-0.1c0.1,0,0.2,0,0.3,0c0.4,0,0.5,0.1,0.5,0.2
		s-0.1,0.2-0.4,0.2h-0.4c-0.6,0-1.1,0.1-1.4,0.3c-0.2,0.1-0.4,0.5-0.8,1.5c-0.2,0.4-0.5,1.1-0.8,2c-0.1,0.2-0.2,0.5-0.4,0.9
		c0.1,0.3,0.4,1.1,0.9,2.4c0.6,1.6,1.2,3,1.6,4.2c0.8-2.3,1.7-4.9,2.7-8c0.5-1.6,0.8-2.5,0.8-2.7c0-0.3-0.3-0.4-0.7-0.4
		c-0.7,0-1-0.1-1-0.3s0.2-0.2,0.5-0.2s0.5,0,0.5,0c0.3,0,0.5,0.1,0.8,0.1h1.6C106,1.3,106.2,1.3,106.3,1.3
		C106.3,1.3,106.3,1.3,106.3,1.3z M97.5,1.6h-0.3h-0.4c-0.5,0-0.7,0.1-0.7,0.3c0,0,0.5,1.3,1.3,3.6c0.4-0.7,0.7-1.6,1.1-2.7
		c0.1-0.2,0.2-0.4,0.3-0.6V2C98.8,1.7,98.4,1.6,97.5,1.6z"/>
	<path class="st1" d="M119.4,1.4c0,0.1-0.1,0.2-0.4,0.2c0,0-0.2,0-0.5,0c-0.1,0-0.2,0-0.3,0c-0.4,0-0.5,0.1-0.6,0.3
		c0,0.1,0,0.3,0,0.5v7.8c0,2-0.4,3.5-1.2,4.4c-0.8,0.9-2,1.4-3.6,1.4c-2,0-3.4-0.5-4.3-1.7c-0.5-0.7-0.8-2-0.8-3.8V2.1
		c0-0.3-0.2-0.4-0.5-0.5c-0.1,0-0.4,0-0.8,0c-0.3,0-0.4-0.1-0.4-0.2c0-0.1,0.1-0.2,0.3-0.2h0.4c0.1,0,0.3,0,0.5,0c0.2,0,0.5,0,0.6,0
		h3c0.1,0,0.2,0,0.3,0c0.3,0,0.4,0.1,0.4,0.3c0,0.1,0,0.2-0.1,0.2c-0.1,0-0.4,0-0.8,0c-0.2,0-0.4,0-0.4,0C110,1.8,110,1.9,109.9,2
		c0,0.1,0,0.5,0,1.2v7.4c0,1.8,0.3,3.1,0.9,3.7c0.5,0.6,1.4,1,2.6,1c2.1,0,3.3-1.2,3.6-3.6c0-0.4,0.1-1.9,0.1-4.5V6.1V4.3V2.9
		c0-0.2,0-0.3,0-0.5s0-0.3,0-0.3c0-0.3-0.2-0.5-0.5-0.5c-0.1,0-0.4,0-0.8,0c-0.3,0-0.5-0.1-0.5-0.3c0-0.1,0.1-0.2,0.3-0.2
		c0.1,0,0.2,0,0.3,0c0.2,0,0.8,0,1.8,0c0.2,0,0.4,0,0.5,0c0.2,0,0.3,0,0.4,0h0.3C119.2,1.3,119.4,1.3,119.4,1.4z"/>
</g>
</svg>
